<svg width="45" height="45" viewBox="0 0 45 45" fill="none" xmlns="http://www.w3.org/2000/svg">
<g clip-path="url(#clip0_430_2009)">
<path d="M45.0002 21.0882C44.729 16.7007 43.1798 12.4885 40.5437 8.97088C37.9075 5.45322 34.2995 2.78388 30.1646 1.29195C26.0297 -0.199987 21.5486 -0.449294 17.2737 0.574759C12.9988 1.59881 9.11705 3.85146 6.10695 7.05499C3.09684 10.2585 1.08999 14.2729 0.333804 18.6032C-0.422381 22.9335 0.105157 27.3904 1.85138 31.4245C3.59761 35.4587 6.48618 38.8936 10.161 41.3059C13.8358 43.7181 18.1362 45.0023 22.532 45.0001H35.6252C38.1108 44.9976 40.4939 44.0091 42.2516 42.2515C44.0092 40.4939 44.9977 38.1107 45.0002 35.6251V21.0882ZM41.2502 35.6251C41.2502 37.1169 40.6575 38.5477 39.6026 39.6026C38.5478 40.6574 37.117 41.2501 35.6252 41.2501H22.532C19.8863 41.2489 17.2705 40.6901 14.8552 39.61C12.4399 38.53 10.2794 36.953 8.51454 34.982C6.74111 33.0118 5.40941 30.6853 4.60871 28.1584C3.80802 25.6315 3.55685 22.9626 3.87204 20.3307C4.36973 16.1793 6.23489 12.3117 9.17349 9.33744C12.1121 6.36319 15.957 4.45154 20.102 3.90383C20.9106 3.80249 21.7247 3.75114 22.5395 3.75008C26.9092 3.73816 31.1435 5.2649 34.5002 8.06258C36.4605 9.69185 38.0696 11.7022 39.2299 13.9719C40.3902 16.2415 41.0775 18.7232 41.2502 21.2663V35.6251Z" fill="black"/>
<path d="M15 16.875H22.5C22.9973 16.875 23.4742 16.6775 23.8258 16.3258C24.1775 15.9742 24.375 15.4973 24.375 15C24.375 14.5027 24.1775 14.0258 23.8258 13.6742C23.4742 13.3225 22.9973 13.125 22.5 13.125H15C14.5027 13.125 14.0258 13.3225 13.6742 13.6742C13.3225 14.0258 13.125 14.5027 13.125 15C13.125 15.4973 13.3225 15.9742 13.6742 16.3258C14.0258 16.6775 14.5027 16.875 15 16.875Z" fill="black"/>
<path d="M30 20.625H15C14.5027 20.625 14.0258 20.8225 13.6742 21.1742C13.3225 21.5258 13.125 22.0027 13.125 22.5C13.125 22.9973 13.3225 23.4742 13.6742 23.8258C14.0258 24.1775 14.5027 24.375 15 24.375H30C30.4973 24.375 30.9742 24.1775 31.3258 23.8258C31.6775 23.4742 31.875 22.9973 31.875 22.5C31.875 22.0027 31.6775 21.5258 31.3258 21.1742C30.9742 20.8225 30.4973 20.625 30 20.625Z" fill="black"/>
<path d="M30 28.125H15C14.5027 28.125 14.0258 28.3225 13.6742 28.6742C13.3225 29.0258 13.125 29.5027 13.125 30C13.125 30.4973 13.3225 30.9742 13.6742 31.3258C14.0258 31.6775 14.5027 31.875 15 31.875H30C30.4973 31.875 30.9742 31.6775 31.3258 31.3258C31.6775 30.9742 31.875 30.4973 31.875 30C31.875 29.5027 31.6775 29.0258 31.3258 28.6742C30.9742 28.3225 30.4973 28.125 30 28.125Z" fill="black"/>
</g>
<defs>
<clipPath id="clip0_430_2009">
<rect width="45" height="45" fill="white"/>
</clipPath>
</defs>
</svg>
