<svg width="45" height="45" viewBox="0 0 45 45" fill="none" xmlns="http://www.w3.org/2000/svg">
<path d="M22.8355 0.34082C18.4543 0.34082 14.1714 1.64001 10.5286 4.07409C6.88571 6.50818 4.04645 9.96784 2.36982 14.0156C0.693192 18.0633 0.25451 22.5173 1.10925 26.8144C1.96398 31.1114 4.07375 35.0585 7.17175 38.1565C10.2698 41.2545 14.2169 43.3643 18.5139 44.219C22.811 45.0738 27.265 44.6351 31.3127 42.9585C35.3604 41.2818 38.8201 38.4426 41.2542 34.7997C43.6883 31.1568 44.9875 26.874 44.9875 22.4927C44.9875 16.6177 42.6536 10.9833 38.4993 6.82897C34.345 2.67468 28.7106 0.34082 22.8355 0.34082ZM22.8355 40.9535C19.1845 40.9534 15.6154 39.8707 12.5797 37.8422C9.54404 35.8137 7.17802 32.9306 5.78086 29.5574C4.38371 26.1843 4.01818 22.4726 4.73048 18.8917C5.44279 15.3108 7.20095 12.0215 9.78264 9.43985C12.3643 6.85817 15.6536 5.10001 19.2345 4.3877C22.8154 3.67539 26.5271 4.04093 29.9002 5.43808C33.2734 6.83523 36.1565 9.20126 38.185 12.237C40.2134 15.2727 41.2962 18.8417 41.2963 22.4927C41.2963 24.9171 40.8189 27.3177 39.8912 29.5574C38.9635 31.7972 37.6036 33.8324 35.8894 35.5466C34.1751 37.2609 32.14 38.6207 29.9002 39.5484C27.6604 40.4761 25.2598 40.9536 22.8355 40.9535Z" fill="black"/>
<path d="M24.1598 9.6879C23.0952 9.49399 22.0011 9.5364 20.9548 9.81213C19.9084 10.0879 18.9355 10.5902 18.1048 11.2835C17.274 11.9769 16.6058 12.8443 16.1475 13.8245C15.6891 14.8047 15.4517 15.8736 15.4521 16.9557C15.4521 17.1981 15.4999 17.4381 15.5927 17.6621C15.6854 17.8861 15.8214 18.0896 15.9929 18.261C16.1643 18.4325 16.3678 18.5684 16.5918 18.6612C16.8157 18.754 17.0558 18.8017 17.2982 18.8017C17.5407 18.8017 17.7807 18.754 18.0047 18.6612C18.2287 18.5684 18.4322 18.4325 18.6036 18.261C18.775 18.0896 18.911 17.8861 19.0038 17.6621C19.0965 17.4381 19.1443 17.1981 19.1443 16.9557C19.1439 16.4125 19.2633 15.876 19.494 15.3843C19.7247 14.8926 20.0611 14.4579 20.4791 14.1111C20.8971 13.7644 21.3865 13.5141 21.9123 13.3781C22.4382 13.2422 22.9875 13.2239 23.5212 13.3247C24.2504 13.4663 24.9209 13.822 25.4469 14.3464C25.973 14.8709 26.3308 15.5402 26.4747 16.269C26.6199 17.0339 26.5197 17.8253 26.1881 18.5298C25.8566 19.2344 25.3108 19.8161 24.6288 20.1918C23.4993 20.8461 22.566 21.7913 21.926 22.929C21.286 24.0666 20.9629 25.3551 20.9901 26.6601V28.0316C20.9901 28.5212 21.1846 28.9908 21.5308 29.337C21.877 29.6832 22.3466 29.8777 22.8362 29.8777C23.3258 29.8777 23.7954 29.6832 24.1416 29.337C24.4878 28.9908 24.6823 28.5212 24.6823 28.0316V26.6601C24.6592 26.0178 24.8058 25.3807 25.1071 24.8129C25.4085 24.2452 25.8541 23.7668 26.3991 23.426C27.7364 22.6913 28.8133 21.5604 29.4817 20.1887C30.1501 18.817 30.3772 17.272 30.1317 15.766C29.8863 14.26 29.1803 12.8671 28.1109 11.7787C27.0415 10.6903 25.6612 9.95987 24.1598 9.6879Z" fill="black"/>
<path d="M23.8894 31.7241H21.6222C21.3562 31.7241 21.1406 31.9397 21.1406 32.2057V34.4729C21.1406 34.7388 21.3562 34.9545 21.6222 34.9545H23.8894C24.1554 34.9545 24.371 34.7388 24.371 34.4729V32.2057C24.371 31.9397 24.1554 31.7241 23.8894 31.7241Z" fill="black"/>
</svg>
