<svg width="47" height="47" viewBox="0 0 47 47" fill="none" xmlns="http://www.w3.org/2000/svg">
<path d="M23.1871 45.6452C35.4213 45.6452 45.339 35.7274 45.339 23.4932C45.339 11.2591 35.4213 1.34131 23.1871 1.34131C10.9529 1.34131 1.03516 11.2591 1.03516 23.4932C1.03516 35.7274 10.9529 45.6452 23.1871 45.6452Z" fill="white"/>
<path d="M23.1874 44.9226C35.0226 44.9226 44.617 35.3283 44.617 23.4931C44.617 11.6578 35.0226 2.06348 23.1874 2.06348C11.3522 2.06348 1.75781 11.6578 1.75781 23.4931C1.75781 35.3283 11.3522 44.9226 23.1874 44.9226Z" stroke="black" stroke-width="3"/>
<path d="M23.1442 11.3545C22.627 13.1126 21.7667 14.751 20.6131 16.1749C19.7302 17.1724 18.7934 18.1209 17.807 19.0162C16.8352 19.9485 16.0132 20.7016 15.4411 21.2169C15.2735 21.3614 13.2052 23.1913 13.563 25.9122C13.6555 26.634 13.9052 27.3268 14.2944 27.9418C14.6836 28.5567 15.2029 29.0788 15.8157 29.4714C18.1273 30.8511 20.59 29.4911 20.7277 29.4107C21.7898 28.7794 22.5954 27.7941 23.0031 26.6278C23.254 28.4995 22.7781 30.3962 21.6735 31.9279C19.5782 34.7498 16.2246 34.824 15.8413 34.8254C15.7092 34.8754 15.5962 34.9655 15.5181 35.0831C15.4678 35.1643 15.4347 35.2549 15.421 35.3495C15.4072 35.444 15.4131 35.5404 15.4382 35.6325H30.8116C30.8389 35.551 30.8481 35.4644 30.8386 35.379C30.8291 35.2935 30.8012 35.2111 30.7567 35.1375C30.687 35.0319 30.5839 34.9528 30.464 34.9126C29.4902 34.9252 28.5241 34.7386 27.6251 34.3642C26.726 33.9898 25.9131 33.4355 25.2361 32.7354C22.862 30.1952 23.4654 26.9153 23.5304 26.5917C23.8566 27.6204 24.4977 28.5208 25.3631 29.1657C26.2285 29.8106 27.2746 30.1675 28.3537 30.186C29.0662 30.1648 29.7643 29.9801 30.3939 29.6461C31.0236 29.3121 31.5681 28.8378 31.9852 28.2598C32.633 27.3511 32.9244 26.2361 32.8039 25.1267C32.6652 24.1328 32.0656 23.3652 30.8714 21.8718C30.1009 20.9087 29.4748 20.2475 28.8286 19.5729C27.5784 18.3787 26.4105 17.1012 25.3329 15.7492C25.2424 15.6298 25.1764 15.5446 25.0892 15.4223C24.2156 14.186 23.558 12.8106 23.1442 11.3545Z" fill="url(#paint0_linear_430_2014)"/>
<path d="M23.5335 26.5921C23.5725 26.7101 24.5636 29.5398 27.2984 30.0806C28.5459 30.3172 29.8363 30.0525 30.8899 29.3438C31.6656 28.7897 32.2551 28.0135 32.5806 27.1175C32.7607 26.6616 32.8518 26.1755 32.8489 25.6853C32.823 24.9537 32.5983 24.243 32.1988 23.6296C31.0156 21.6884 29.0041 19.8671 27.0971 17.807C26.1317 16.8368 25.2778 15.7619 24.5511 14.6022C23.9522 13.5807 23.48 12.4901 23.1449 11.3545C22.2222 14.947 22.7259 17.3129 23.3818 18.8269C24.069 20.4161 25.14 21.5665 25.0071 23.395C24.877 24.5927 24.3596 25.7152 23.5335 26.5921Z" fill="url(#paint1_linear_430_2014)"/>
<path opacity="0.87" d="M23.0104 26.6289C23.2271 28.0348 23.0191 29.4733 22.4133 30.7602C21.6118 32.3723 20.2418 33.6305 18.5675 34.292C17.7026 34.6388 16.7804 34.8203 15.8486 34.8271C15.7671 34.8562 15.6926 34.9022 15.63 34.9619C15.5494 35.0525 15.4908 35.1605 15.4588 35.2774C15.4267 35.3943 15.422 35.5171 15.445 35.6361H30.8194C30.8437 35.5602 30.8524 35.4803 30.845 35.401C30.8375 35.3217 30.8141 35.2447 30.7761 35.1747C30.7065 35.0536 30.5955 34.9616 30.4636 34.9157C29.5191 34.9275 28.5817 34.7519 27.7055 34.3991C26.8293 34.0463 26.0317 33.5233 25.359 32.8603C22.8679 30.3206 23.4717 26.9029 23.5319 26.5942L23.0104 26.6289Z" fill="url(#paint2_linear_430_2014)"/>
<defs>
<linearGradient id="paint0_linear_430_2014" x1="13.5215" y1="23.4935" x2="32.8305" y2="23.4935" gradientUnits="userSpaceOnUse">
<stop stop-color="#124D95"/>
<stop offset="0.586" stop-color="#156FB8"/>
<stop offset="1" stop-color="#2086C8"/>
</linearGradient>
<linearGradient id="paint1_linear_430_2014" x1="22.6406" y1="20.7598" x2="32.849" y2="20.7598" gradientUnits="userSpaceOnUse">
<stop stop-color="#FF9A66"/>
<stop offset="1" stop-color="#F0E620"/>
</linearGradient>
<linearGradient id="paint2_linear_430_2014" x1="15.4307" y1="31.1152" x2="30.8476" y2="31.1152" gradientUnits="userSpaceOnUse">
<stop stop-color="#00C8CD"/>
<stop offset="1" stop-color="#31727C"/>
</linearGradient>
</defs>
</svg>
